PathFileType	4	(X/Y/Z)	Patient4_TMGait_0pt4_02_right_43.trc.trc
DataRate	CameraRate	NumFrames	NumMarkers	Units	OrigDataRate	OrigDataStartFrame	OrigNumFrames
75.675675675676	75.675675675676	4	33	mm	75.675675675676	36	       141
Frame#	Time	Sacral			L.Shoulder			Chest			R.Shoulder			Neck			R.ASIS			L.ASIS			R.Thigh.Superior			R.Thigh.Lateral			R.Thigh.Inferior			R.Patella			L.Thigh.Superior			L.Thigh.Lateral			L.Thigh.Inferior			L.Patella			L.Shank.Superior			L.Shank.Lateral			L.Shank.Inferior			R.Shank.Superior			R.Shank.Lateral			R.Shank.Inferior			R.Heel			R.Midfoot.Superior			R.Midfoot.Lateral			R.Toe			L.Heel			L.Midfoot.Lateral			L.Midfoot.Superior			L.Toe			L.Elbow			L.Wrist			R.Elbow			R.Wrist			
		X1	Y1	Z1	X2	Y2	Z2	X3	Y3	Z3	X4	Y4	Z4	X5	Y5	Z5	X6	Y6	Z6	X7	Y7	Z7	X8	Y8	Z8	X9	Y9	Z9	X10	Y10	Z10	X11	Y11	Z11	X12	Y12	Z12	X13	Y13	Z13	X14	Y14	Z14	X15	Y15	Z15	X16	Y16	Z16	X17	Y17	Z17	X18	Y18	Z18	X19	Y19	Z19	X20	Y20	Z20	X21	Y21	Z21	X22	Y22	Z22	X23	Y23	Z23	X24	Y24	Z24	X25	Y25	Z25	X26	Y26	Z26	X27	Y27	Z27	X28	Y28	Z28	X29	Y29	Z29	X30	Y30	Z30	X31	Y31	Z31	X32	Y32	Z32	X33	Y33	Z33	

36	57.122500000000	830.224511147838	995.054448363048	512.209791505173	996.499844530215	1432.538925779622	337.986287184495	1092.822296000928	1369.786304184719	505.191527616233	994.181227537947	1434.539808434914	674.741281777094	964.164288574986	1492.866984169743	495.219103125826	1059.237263233375	943.384700156946	637.880827814323	1053.613409882883	963.872923221108	362.776050991772	1119.457033435881	749.035716349978	609.539857298734	1049.726562477829	634.155870821751	673.492742536828	1132.755446957994	588.016888182406	594.598973673589	1141.790609364221	499.847107981258	603.776185104718	1078.697024757427	735.656529983456	383.711999511974	978.239069829274	628.669120460779	315.890001892628	1056.621253085574	539.200601243131	371.812488920532	1047.010736837301	459.796362989374	369.877988570340	990.491170921397	399.502588855437	362.309838587898	861.954821185359	328.816279110231	312.543714055661	873.660825491934	199.977034594873	369.814463002634	1116.622960309532	409.249424697816	614.758455779184	1049.347829364156	305.359292977573	680.970312330606	1094.960292502275	209.717206941247	621.603498779242	967.849784270860	42.757305379304	598.432072616232	1137.655663746809	97.828169487282	631.451484889140	1051.703850234324	37.086785704702	673.002628571445	1259.333709514634	48.583705206665	659.074748819828	705.821019100649	82.550492145612	408.321736966172	775.076147121438	58.922157404954	328.556971488858	869.923692474953	103.351639061987	350.794399344038	982.032888364665	37.193163733296	323.374162190567	1026.628950564468	1089.335685369400	200.339550064000	1223.350047408000	915.294303816414	180.274538694641	947.742681813348	1088.335260540856	793.498601372086	1057.282217053128	850.654457227396	794.198064148609	
37	57.135714285714	830.221082237189	995.411139157654	516.028503486027	995.114628593792	1433.079822895543	341.174475645646	1092.680120431532	1370.307992321597	507.631057032832	995.308536933511	1434.913979595041	677.894508803743	963.922616812605	1493.292225901208	498.669014886835	1060.119609672050	944.134531938152	640.538517196503	1052.830932480592	964.192040523936	365.601759865913	1118.640063847813	748.473478949405	612.789006390048	1047.525758072532	634.059099542214	675.853082423053	1130.283231402656	587.475894113435	596.972237416986	1138.477473156441	499.334203828272	605.471465334056	1083.639800554315	737.677604926015	386.504141716680	987.316866596943	628.363270145848	317.818538740295	1068.704233848228	540.407484935601	373.414677355652	1060.010140731083	459.552806317147	370.262688615654	1000.950032282386	399.693018754247	362.757192929963	869.725426325032	333.901348471308	313.327490497644	877.310200325098	204.317914121985	369.168219002355	1113.024846567261	408.820542536688	616.119132707914	1045.486716898169	304.937631991291	681.797609763916	1090.513142115620	209.370289457106	622.087774738535	962.655735666750	42.721517719494	598.522484300515	1132.476382450536	97.795407460628	631.664692649436	1046.500461891457	37.050626626814	673.145208161416	1254.177919159374	48.448476820424	659.302692691573	705.218251781838	94.698166409185	407.663716320335	772.849983244189	66.632857685416	328.180000272106	869.746812893484	106.089758404594	349.756270923462	977.139352232728	36.305293604419	323.314644881103	1022.748152296373	1088.838581288513	205.260580330588	1208.072055961619	902.787269790549	183.648815062830	956.159725483387	1088.232586507738	798.868836650046	1076.215593553221	855.790110090431	799.370861941602	
38	57.148928571429	830.021390048040	995.751606012920	519.825648239541	993.641533211459	1433.481073742564	344.209560093416	1092.525253559706	1370.719997982751	509.882920326155	996.553762301147	1435.298269280551	680.888970340765	963.706406388825	1493.655377459206	501.941129799473	1060.781999050742	944.777790523888	643.086728408812	1051.680162754868	964.352791050737	368.353601571658	1117.530666541451	747.855463363685	615.866562390930	1045.107552827915	633.930966621393	678.136096919387	1127.490144097583	586.906759839662	599.189783018076	1134.846686920275	498.815898601892	607.072269380438	1088.584257917245	739.978422723774	389.249120743776	996.805290834952	628.372933042503	319.568837785698	1081.096527245619	542.157254151748	375.047317234028	1073.461504050432	459.955399425621	370.820230955747	1012.109822508924	400.378557397771	363.248046225549	878.451734927233	339.512756168448	314.002514184530	881.851403233249	209.367683315019	368.536502579722	1109.166293639519	408.385060118379	617.410896391644	1041.410586646140	304.488685714334	682.586545477725	1085.881573712982	209.009230739479	622.523911600955	957.337718961434	42.678570554360	598.586940793290	1127.216248292356	97.730657058928	631.878510403992	1041.183763971903	36.993179869038	673.263099232305	1248.921155844034	48.224475976192	659.492969751549	705.714555768480	108.309575735061	407.000773660092	771.379632372090	75.655471664293	327.783977814291	870.243395869497	109.464892635793	348.799514370084	972.273000969633	35.281018241673	323.288882545272	1018.685439459634	1088.225791191499	210.049690699922	1191.811773937455	890.871389267926	187.259705632878	964.725646807177	1088.414374986656	804.202611309856	1095.375480996413	861.883824017128	804.130936933164	
39	57.162142857143	829.636535610367	996.054111813053	523.568988682906	992.120106627341	1433.732129832120	347.064828584017	1092.359784286125	1371.005692162304	511.938676548726	997.881421612558	1435.669260035724	683.699362256543	963.528160683228	1493.949144421668	504.999568913451	1061.220434134165	945.294610237188	645.520946940904	1050.244138678101	964.364593984106	370.997552353352	1116.204866110812	747.228279846971	618.654084337834	1042.653232805457	633.795148977039	680.320844423411	1124.513918244115	586.335369049658	601.190234653949	1131.043461544971	498.298155840472	608.555593078231	1093.410506730434	742.563136007333	391.931952526343	1006.488231398720	628.762720370568	321.158851196335	1093.532569395330	544.496890217829	376.707402863466	1087.127195921716	461.062221849600	371.571780677649	1023.763833261485	401.594797445827	363.823048519577	887.961145026759	345.580139018034	314.602395844681	887.195192486405	215.061165823083	368.000604888178	1105.177194164705	407.946740166103	618.617058721831	1037.245129831877	304.034374024407	683.360418131487	1081.148125479852	208.641219748468	622.910190038462	951.937702096253	42.636359052451	598.641936037745	1121.914417492212	97.653368709175	632.096389144815	1035.797064698165	36.926738125968	673.370143469148	1243.600773706561	47.942825494577	659.652578855845	707.348966680939	123.121153988078	406.383891248232	770.749514548004	85.881529332983	327.409267762834	871.401986685923	113.505254564552	348.002162911624	967.522699903026	34.143257496068	323.304159988798	1014.331051191430	1087.466228715110	214.701329435529	1174.681103936092	879.703311135498	191.114780499783	973.414152263244	1088.858886814314	809.444176444518	1114.657933074092	868.936562862484	808.415288539953	
